<?xml version="1.0" encoding="UTF-8" standalone="no"?>
<!DOCTYPE svg PUBLIC "-//W3C//DTD SVG 1.1//EN" "http://www.w3.org/Graphics/SVG/1.1/DTD/svg11.dtd">
<!-- Created with Vectornator (http://vectornator.io/) -->
<svg height="500.0pt" stroke-miterlimit="10" style="fill-rule:nonzero;clip-rule:evenodd;stroke-linecap:round;stroke-linejoin:round;" version="1.1" viewBox="0 0 500 500" width="500.0pt" xml:space="preserve" xmlns="http://www.w3.org/2000/svg" xmlns:xlink="http://www.w3.org/1999/xlink">
<defs/>
<g id="Layer-1">
<path d="M185 10C167.4 10 151.553 16.8365 138.219 29.0312C127.709 38.6435 118.889 51.379 110.969 67.2188C99.3266 90.5031 90.678 117.071 78.5312 162.188C77.2551 166.927 72.3233 185.424 71.125 189.875C62.0884 223.44 56.0535 242.497 49.4688 256.656C46.3099 263.449 43.4436 268.015 41.1875 270.406C26.4445 272.302 15 284.741 15 300C15 316.569 28.4315 330 45 330C59.9912 330 73.1385 323.579 83.8125 312.688C91.5721 304.769 97.9961 294.579 103.875 281.938C112.394 263.618 119.135 242.343 129.062 205.469C130.288 200.918 135.219 182.453 136.469 177.812C147.589 136.509 155.389 112.567 164.656 94.0312C169.556 84.2316 174.35 77.3082 178.719 73.3125C181.392 70.8679 183.085 70.1296 184.75 70.0625C184.817 70.0942 184.82 70.0921 184.938 70.1562C186.196 70.8444 187.939 72.2873 190.031 74.625C195.563 80.8063 201.642 91.0916 207.875 105.219C219.098 130.658 228.94 162.683 243.5 217.688C242.803 215.053 253.821 256.912 256.844 268.125C267.885 309.077 276.267 335.68 285.562 356.75C291.662 370.575 298.054 381.599 305.438 390.125C316.099 402.436 329.265 410 345 410C365.376 410 383.676 403.722 400.406 392.25C412.435 384.002 422.234 374.411 435.062 359.75C437.037 357.493 443.407 350.109 443.719 349.75C446.836 346.159 449.177 343.561 451.344 341.25C456.017 336.265 459.613 333.063 462.469 331.25C463.473 330.613 464.245 330.239 464.781 330.062C464.968 330.001 464.989 330 465 330C481.569 330 495 316.569 495 300C495 283.431 481.569 270 465 270C452.544 270 441.026 273.792 430.312 280.594C422.473 285.571 415.389 291.871 407.562 300.219C404.774 303.194 401.983 306.316 398.406 310.438C397.973 310.936 391.748 318.181 389.938 320.25C373.058 339.541 362.114 347.938 349.969 349.656C347.252 346.202 344.004 340.616 340.438 332.531C332.733 315.068 325.063 290.637 314.781 252.5C311.816 241.5 300.847 199.847 301.5 202.312C286.145 144.305 275.654 110.279 262.75 81.0312C254.191 61.63 245.144 46.2075 234.75 34.5938C220.879 19.0948 204.212 10 185 10Z" fill="#fafafa" fill-rule="nonzero" opacity="1" stroke="none"/>
<path d="M35 10C18.4315 10 5 23.4315 5 40L5 460C5 476.569 18.4315 490 35 490C51.5685 490 65 476.569 65 460L65 40C65 23.4315 51.5685 10 35 10Z" fill="#fafafa" fill-rule="nonzero" opacity="1" stroke="none"/>
<path d="M45 270C28.4315 270 15 283.431 15 300C15 316.569 28.4315 330 45 330L465 330C481.569 330 495 316.569 495 300C495 283.431 481.569 270 465 270L45 270Z" fill="#fafafa" fill-rule="nonzero" opacity="1" stroke="none"/>
</g>
</svg>
